<svg width="37" height="40" viewBox="0 0 37 40" fill="none" xmlns="http://www.w3.org/2000/svg" xmlns:xlink="http://www.w3.org/1999/xlink" version="1.1">
<path d="M16.3743 9.48553C16.5708 9.04183 16.7878 8.60143 17.0255 8.16609L17.0754 8.07521L17.1037 8.02432C17.5237 7.27131 17.9878 6.56713 18.4877 5.9152C20.4316 3.3803 22.9175 1.63556 25.4614 0.88324C25.4704 0.88055 25.4795 0.877861 25.4886 0.87519C27.8992 0.169166 30.3604 0.354585 32.4604 1.60352L32.5187 1.63851C37.4123 4.60403 38.4603 12.2736 34.857 18.7833C31.6733 24.535 25.9224 27.4594 21.24 26.0364L27.7503 37.7912L24.5235 39.7332L18.5021 28.8606L12.4839 39.7332L9.25085 37.7861L17.2543 23.3273C15.6007 21.2866 14.8054 18.4472 14.9489 15.3955C15.0399 13.461 15.5082 11.4412 16.3743 9.48553ZM29.2082 4.48836V20.0302C30.0864 19.2042 30.9163 18.1511 31.639 16.8455C34.6417 11.4208 33.1009 6.50332 30.6251 5.01242C30.2124 4.76386 29.7336 4.58641 29.2082 4.48836ZM27.3416 21.4228V4.46294C26.1447 4.63318 24.8494 5.15161 23.6085 6.0832V22.4581C24.7599 22.4787 26.0582 22.1568 27.3416 21.4228ZM19.9086 20.4863C20.1852 20.8878 20.4963 21.2314 20.8319 21.5083C20.9856 21.6351 21.1444 21.748 21.3072 21.846C21.3958 21.8994 21.4873 21.9494 21.5817 21.996C21.6266 22.0183 21.6723 22.0397 21.7186 22.0605L21.7419 22.071V7.87599C21.2274 8.4959 20.74 9.20626 20.2934 10.013L20.2653 10.064L20.2235 10.1406C20.1121 10.3465 20.0072 10.5516 19.9086 10.7557C17.9767 14.757 18.4738 18.4026 19.9086 20.4863Z" fill="url(#paint0_linear_0_1)"/>
<path d="M13.731 6.36754C12.3834 5.25486 10.9519 4.6485 9.63951 4.46188V21.361C10.5633 21.8893 11.4947 22.2039 12.3732 22.3303C12.5278 22.7167 12.6984 23.0954 12.8852 23.4657L11.4075 26.1355C7.89212 25.4254 4.37874 22.7823 2.13874 18.7376C-1.46231 12.2355 -0.408767 4.5734 4.49188 1.62382C7.89968 -0.427244 12.2704 0.340529 15.8279 3.18495C15.1047 4.08861 14.4517 5.0607 13.884 6.08621C13.8323 6.17964 13.7813 6.27341 13.731 6.36754ZM5.35711 16.8007C6.07664 18.0999 6.90262 19.1481 7.77657 19.9706V4.48758C7.25383 4.5853 6.7774 4.7619 6.36673 5.00907C3.90019 6.49361 2.3622 11.3929 5.35711 16.8007Z" fill="url(#paint1_linear_0_1)"/>
<defs>
<linearGradient id="paint0_linear_0_1" x1="23.1254" y1="0.465927" x2="23.1254" y2="39.7332" gradientUnits="userSpaceOnUse">
<stop stop-color="#B74534"/>
<stop offset="1" stop-color="#C95D4D"/>
</linearGradient>
<linearGradient id="paint1_linear_0_1" x1="7.91393" y1="0.465927" x2="7.91393" y2="26.1355" gradientUnits="userSpaceOnUse">
<stop stop-color="#B74534"/>
<stop offset="1" stop-color="#C95D4D"/>
</linearGradient>
</defs>
</svg>
