<svg width="18" height="18" viewBox="0 0 18 18" fill="none" xmlns="http://www.w3.org/2000/svg">
<path d="M15.7342 3.375H11.8125V1.6875C11.8125 1.53832 11.7532 1.39524 11.6477 1.28975C11.5423 1.18426 11.3992 1.125 11.25 1.125H6.75C6.60082 1.125 6.45774 1.18426 6.35225 1.28975C6.24676 1.39524 6.1875 1.53832 6.1875 1.6875V3.375H2.26582L2.25 4.78125H3.41016L4.11645 15.8203C4.13432 16.1058 4.26026 16.3737 4.46866 16.5696C4.67705 16.7656 4.95225 16.8748 5.23828 16.875H12.7617C13.0476 16.875 13.3227 16.7661 13.5312 16.5705C13.7397 16.375 13.8659 16.1073 13.8843 15.8221L14.5898 4.78125H15.75L15.7342 3.375ZM6.1875 14.625L5.87109 5.625H7.03125L7.34766 14.625H6.1875ZM9.5625 14.625H8.4375V5.625H9.5625V14.625ZM10.4062 3.375H7.59375V2.39062C7.59375 2.35333 7.60857 2.31756 7.63494 2.29119C7.66131 2.26482 7.69708 2.25 7.73438 2.25H10.2656C10.3029 2.25 10.3387 2.26482 10.3651 2.29119C10.3914 2.31756 10.4062 2.35333 10.4062 2.39062V3.375ZM11.8125 14.625H10.6523L10.9688 5.625H12.1289L11.8125 14.625Z" fill="url(#paint0_linear_16_1242)"/>
<defs>
<linearGradient id="paint0_linear_16_1242" x1="9" y1="1.125" x2="9" y2="16.875" gradientUnits="userSpaceOnUse">
<stop stop-color="#B74534"/>
<stop offset="1" stop-color="#C95D4D"/>
</linearGradient>
</defs>
</svg>
